<svg width="40" height="40" viewBox="0 0 40 40" fill="none" xmlns="http://www.w3.org/2000/svg">
<rect y="16.6667" width="23.3333" height="23.3333" fill="#7595FD"/>
<path d="M29.9999 26.6667H26.6666V25H13.3333V26.6667H9.99992V25H3.33325V33.3334H36.6666V25H29.9999V26.6667ZM33.3333 13.3334H28.3333V10C28.3333 8.16669 26.8333 6.66669 24.9999 6.66669H14.9999C13.1666 6.66669 11.6666 8.16669 11.6666 10V13.3334H6.66659C4.83325 13.3334 3.33325 14.8334 3.33325 16.6667V23.3334H9.99992V20H13.3333V23.3334H26.6666V20H29.9999V23.3334H36.6666V16.6667C36.6666 14.8334 35.1666 13.3334 33.3333 13.3334ZM24.9999 13.3334H14.9999V10H24.9999V13.3334Z" fill="white"/>
</svg>
