<svg width="40" height="41" viewBox="0 0 40 41" fill="none" xmlns="http://www.w3.org/2000/svg">
<g clip-path="url(#clip0_8_117)">
<rect y="17.1667" width="23.3333" height="23.3333" fill="#7595FD"/>
<path d="M31.6516 3.83334H15.0166C13.1649 3.83334 11.6666 5.33168 11.6666 7.18334V16.5783L3.82989 24.315C3.59508 24.5472 3.43456 24.844 3.36869 25.1676C3.30282 25.4912 3.33458 25.8271 3.45994 26.1326C3.5853 26.4382 3.7986 26.6996 4.07277 26.8837C4.34695 27.0678 4.66964 27.1663 4.99989 27.1667V35.5C4.99989 35.942 5.17548 36.366 5.48804 36.6785C5.8006 36.9911 6.22453 37.1667 6.66655 37.1667H33.3332C33.7752 37.1667 34.1992 36.9911 34.5117 36.6785C34.8243 36.366 34.9999 35.942 34.9999 35.5V7.18168C34.9999 5.33168 33.5032 3.83334 31.6516 3.83334ZM18.2032 25.685V33.8333H8.33322V24.5533L13.3116 19.6383L18.2032 24.6433V25.685ZM21.6666 15.5H18.3332V12.1667H21.6666V15.5ZM28.3332 28.8333H24.9999V25.5H28.3332V28.8333ZM28.3332 22.1667H24.9999V18.8333H28.3332V22.1667ZM28.3332 15.5H24.9999V12.1667H28.3332V15.5Z" fill="#292E3D"/>
<path d="M11.6667 25.5H15.0001V28.8333H11.6667V25.5Z" fill="#14171F"/>
</g>
<defs>
<clipPath id="clip0_8_117">
<rect width="40" height="40" fill="white" transform="translate(0 0.5)"/>
</clipPath>
</defs>
</svg>
